<svg xmlns="http://www.w3.org/2000/svg" viewBox="0 0 454.404 454.404"><path fill="#fff" d="M402.009 68.462l-50.83-12.706L338.47 4.923a6.498 6.498 0 0 0-12.611.001l-10.065 40.265c-11.419-5.771-23.993-8.756-36.914-8.705l-1.049.005c-17.821.078-34.245 9.443-43.936 25.05-6.436 10.364-17.55 16.552-29.731 16.552s-23.296-6.188-29.731-16.552c-9.691-15.607-26.116-24.972-43.935-25.05l-1.054-.005-.368-.001c-43.873 0-80.433 35.553-81.577 79.422a81.664 81.664 0 0 0 3.675 26.538l28.987 90.604c.023 35.458 7.548 89.386 24.163 125.252l37.25 80.404c3.207 9.32 11.734 15.611 21.348 15.7 6.113.062 11.833-2.274 16.16-6.561a22.502 22.502 0 0 0 6.712-16.097c0-.603-.084-1.203-.249-1.783-7.377-25.865-22.161-98.769-2.251-125.151 4.956-6.567 11.783-9.76 20.87-9.76 8.862 0 15.544 3.127 20.427 9.561 19.852 26.155 5.439 99.052-1.788 124.933a6.504 6.504 0 0 0-.24 1.75c0 11.757 9.322 22.089 20.78 23.031a23.38 23.38 0 0 0 1.901.078 22.576 22.576 0 0 0 21.396-15.262l37.426-80.902c16.575-35.831 24.081-89.72 24.102-125.194l29.002-90.649a81.634 81.634 0 0 0 3.66-26.491 80.468 80.468 0 0 0-4.134-23.503l45.313-11.329a6.5 6.5 0 0 0 0-12.612zm-57.44 13.571a6.501 6.501 0 0 0-5.057 4.804l-7.349 29.397-2.48-9.922a6.501 6.501 0 0 0-7.882-4.729 6.498 6.498 0 0 0-4.729 7.882l8.787 35.146a6.5 6.5 0 0 0 12.612-.001l8.824-35.301c.294 2.29.478 4.602.539 6.933.198 7.607-.836 15.104-3.06 22.237l-29.298 91.573a6.975 6.975 0 0 0-.31 2.08c.118 34.011-6.998 86.273-22.899 120.647l-37.575 81.225a6.373 6.373 0 0 0-.282.721 9.638 9.638 0 0 1-10 6.642c-4.473-.368-8.423-4.627-8.814-9.316 2.985-11.03 25.98-100.204-.645-135.296-7.404-9.759-17.763-14.707-30.786-14.707-13.258 0-23.771 5.023-31.247 14.929-26.667 35.336-3.209 124.479-.154 135.546a9.584 9.584 0 0 1-2.83 6.081c-1.844 1.827-4.28 2.813-6.89 2.797-4.091-.038-7.89-2.964-9.238-7.115a6.43 6.43 0 0 0-.284-.724l-37.401-80.73c-14.568-31.447-21.777-77.834-22.821-111.577 17.797 5.828 60.005 17.588 110.866 17.588 25.257 0 51.559-2.982 78.174-8.864a6.5 6.5 0 0 0 4.944-7.75 6.5 6.5 0 0 0-7.749-4.944 383.296 383.296 0 0 1-9.55 1.984l14.176-35.972a6.5 6.5 0 0 0-12.094-4.767l-17.08 43.341c-17.275 2.637-34.289 3.971-50.821 3.971-18.656 0-36.227-1.693-51.76-4.088l-17.034-43.224a6.5 6.5 0 1 0-12.094 4.767l14.119 35.826c-22.67-4.453-39.178-9.869-45.513-12.103L63.57 138.526c-2.239-7.178-3.273-14.675-3.074-22.282.964-36.98 31.91-66.931 68.887-66.76l1.058.005c13.316.059 25.634 7.127 32.948 18.907 8.824 14.211 24.067 22.695 40.776 22.695s31.952-8.484 40.776-22.695c7.313-11.781 19.631-18.849 32.949-18.907l1.053-.005.311-.001a67.928 67.928 0 0 1 30.357 7.157l-47.29 11.823a6.5 6.5 0 0 0 0 12.612l41.208 10.301a6.499 6.499 0 0 0 7.882-4.73 6.5 6.5 0 0 0-4.729-7.882l-15.981-3.995 29.063-7.266a6.501 6.501 0 0 0 5.056-4.803l7.348-29.396 7.266 29.061a6.501 6.501 0 0 0 4.804 5.057l29.396 7.348-29.065 7.263z"/></svg>