<svg xmlns="http://www.w3.org/2000/svg" viewBox="0 0 417.921 417.921"><path fill="#58abff" d="M277.659 191.921c22.368-22.369 22.368-58.766 0-81.135-10.836-10.836-25.243-16.804-40.568-16.804-15.324 0-29.731 5.968-40.567 16.804-22.368 22.369-22.368 58.766 0 81.135 11.185 11.185 25.876 16.777 40.567 16.777 14.692 0 29.383-5.593 40.568-16.777zm-40.569-84.939c11.853 0 22.995 4.615 31.375 12.996a44.286 44.286 0 0 1 6.343 8.021h-75.436a44.339 44.339 0 0 1 6.343-8.021c8.381-8.38 19.524-12.996 31.375-12.996zM193.961 141h86.26a44.667 44.667 0 0 1 1.213 10.644h-57.792a6.5 6.5 0 1 0 0 13h55.765a44.086 44.086 0 0 1-10.941 18.085c-17.298 17.3-45.449 17.301-62.749 0-11.299-11.298-15.214-27.221-11.756-41.729zm195.293 136.544l-48.446-48.446a6.5 6.5 0 0 0-9.192 0l-3.621 3.621-20.956-20.956a299.76 299.76 0 0 0 .421-15.201l29.002-90.647c2.665-8.544 3.896-17.457 3.66-26.493C338.977 35.55 302.421 0 258.545 0l-.368.001-1.053.005c-17.821.078-34.246 9.443-43.937 25.05-6.436 10.365-17.55 16.552-29.731 16.552s-23.296-6.188-29.731-16.552C144.035 9.449 127.611.084 109.788.006l-1.051-.005-.368-.001C64.495 0 27.936 35.553 26.791 79.423a81.716 81.716 0 0 0 3.675 26.537l28.988 90.603c.023 35.459 7.548 89.389 24.163 125.252l37.249 80.404c3.207 9.32 11.734 15.611 21.349 15.7l.215.001c6.014 0 11.67-2.326 15.946-6.563 4.327-4.288 6.711-10.005 6.711-16.097a6.51 6.51 0 0 0-.249-1.782c-7.37-25.876-22.143-98.804-2.248-125.156 4.955-6.564 11.781-9.756 20.866-9.756 8.862 0 15.544 3.127 20.427 9.561 19.852 26.156 5.439 99.052-1.788 124.934a6.51 6.51 0 0 0-.24 1.75c0 11.756 9.322 22.088 20.781 23.032.638.053 1.271.078 1.901.078a22.576 22.576 0 0 0 21.396-15.262l37.426-80.902c12.069-26.09 19.324-61.746 22.388-92.901l13.056 13.055-3.968 3.968a6.5 6.5 0 0 0 0 9.192l48.446 48.446c1.27 1.269 2.934 1.904 4.597 1.904s3.327-.635 4.596-1.904l16.781-16.78a6.502 6.502 0 0 0-.001-9.193zm-199.875-78.479c-12.745-12.744-19.764-29.688-19.764-47.712 0-18.023 7.019-34.967 19.764-47.711 12.744-12.744 29.688-19.763 47.711-19.763s34.967 7.019 47.711 19.763h.001c12.744 12.744 19.763 29.688 19.763 47.711s-7.019 34.968-19.764 47.712c-12.744 12.745-29.688 19.763-47.711 19.763s-34.967-7.018-47.711-19.763zM42.862 102.044c-2.238-7.179-3.272-14.676-3.074-22.283C40.748 42.883 71.482 13 108.37 13l.31.001 1.054.005c13.316.058 25.633 7.126 32.947 18.907 8.824 14.211 24.067 22.695 40.776 22.695s31.952-8.484 40.776-22.695c7.314-11.781 19.631-18.849 32.946-18.907l1.056-.005.31-.001c36.884 0 67.62 29.885 68.581 66.761.199 7.606-.835 15.103-3.06 22.237l-9.181 28.698c-3.584-13.586-10.691-26.047-20.89-36.247-15.2-15.2-35.409-23.571-56.904-23.571s-41.704 8.371-56.904 23.571c-15.199 15.2-23.57 35.409-23.57 56.904 0 21.496 8.371 41.705 23.57 56.904.375.375.767.727 1.148 1.094-17.866-.122-34.695-1.773-49.638-4.078l-17.034-43.223a6.5 6.5 0 0 0-12.094 4.767l14.119 35.826c-22.669-4.453-39.176-9.869-45.512-12.103l-28.314-88.496zM271.56 316.298l-37.575 81.225a6.373 6.373 0 0 0-.282.721 9.639 9.639 0 0 1-10 6.643c-4.473-.368-8.424-4.627-8.815-9.316 2.985-11.029 25.981-100.204-.645-135.296-7.404-9.759-17.762-14.708-30.786-14.708-13.258 0-23.771 5.023-31.246 14.929-26.667 35.336-3.209 124.48-.154 135.546a9.581 9.581 0 0 1-2.83 6.081c-1.845 1.828-4.241 2.811-6.891 2.797-4.091-.038-7.89-2.964-9.238-7.116a6.506 6.506 0 0 0-.284-.724l-37.4-80.73c-14.568-31.445-21.777-77.833-22.821-111.577 17.797 5.829 60.006 17.588 110.865 17.588 4.94 0 9.99-.137 15.037-.369 11.7 6.414 24.883 9.835 38.596 9.835 19.454 0 37.84-6.877 52.427-19.446.257.411.559.803.916 1.16l3.293 3.292c-2.182 32.099-9.295 71.64-22.167 99.465zm96.317-26.57l-39.254-39.254 3.963-3.963.005-.005.005-.005 3.615-3.615 39.254 39.254-7.588 7.588z"/></svg>