<svg xmlns="http://www.w3.org/2000/svg" width="512" height="512" viewBox="0 0 430.185 430.184"><g fill="#FFF"><path d="M151.675 307.655h27.982s3.894-.701 3.894 3.465v28.41c0 4.297 3.516 7.812 7.813 7.812h47.459c4.297 0 7.813-3.516 7.813-7.812v-28.076c0-3.166 4.188-3.799 4.188-3.799h27.687c4.296 0 7.812-3.516 7.812-7.812v-47.461c0-4.295-3.515-7.811-7.812-7.811h-28.396c-3 0-3.479-3.867-3.479-3.867v-28.008c0-4.297-3.517-7.813-7.813-7.813h-47.459c-4.297 0-7.813 3.516-7.813 7.813v28.258s.19 3.617-3.435 3.617h-28.44c-4.297 0-7.812 3.516-7.812 7.811v47.461c-.001 4.297 3.514 7.812 7.811 7.812z"/><path d="M407.903 105.043h-72.448c-3.625 0-3.75-3.319-3.75-3.319V43.761c0-9.023-7.341-16.364-16.364-16.364h-200.5c-9.023 0-16.364 7.341-16.364 16.364v57.712c0 3.667-4.106 3.569-4.106 3.569h-72.09C9.995 105.042 0 115.037 0 127.323v253.183c0 12.285 9.995 22.281 22.281 22.281h385.622c12.286 0 22.281-9.996 22.281-22.281V127.324c.001-12.286-9.995-22.281-22.281-22.281zM118.478 51.849c0-4 3.102-4.451 3.102-4.451h185.959s4.167.743 4.167 4.576v49.333c0 2.347-.5 3.736-4.333 3.736H122.206s-3.728.097-3.728-3.236V51.849zm291.707 328.658c0 1.235-1.045 2.28-2.281 2.28H22.281c-1.236 0-2.281-1.043-2.281-2.28V173.223c0-2.333 2.789-2.641 2.789-2.641h384.542s2.854.141 2.854 3.016v206.909zm-5.229-229.925H24.831S20 150.848 20 146.973v-19.65c0-1.236 1.044-2.281 2.281-2.281h385.622c1.236 0 2.281 1.044 2.281 2.281v19.4c.001.001.022 3.859-5.228 3.859z"/></g></svg>