<svg xmlns="http://www.w3.org/2000/svg" viewBox="0 0 432.836 432.836"><path fill="#fff" d="M393.277 52.929L218.486.301l-.047-.014-.036-.011-.044-.01a6.416 6.416 0 0 0-.776-.173c-.067-.011-.133-.022-.199-.031a6.52 6.52 0 0 0-.843-.062h-.011c-.287 0-.567.025-.844.061-.067.009-.133.02-.199.03a6.62 6.62 0 0 0-.774.171l-.045.01-.038.011-.051.015L39.693 52.586a6.5 6.5 0 0 0-4.638 6.221l-.122 129.724c-.083 87.902 47.372 169.431 123.846 212.772l54.148 30.688.033.016c.228.128.464.242.707.342l.105.039a6.589 6.589 0 0 0 .822.258c.189.046.381.083.576.112.065.01.13.022.195.03.25.03.503.049.761.049h.006c.258 0 .512-.019.762-.048.067-.008.132-.021.199-.03a6.328 6.328 0 0 0 .77-.162c.211-.058.417-.126.618-.204.036-.014.072-.025.108-.04.243-.099.478-.212.704-.339l.033-.016 54.207-30.586c76.556-43.197 124.164-124.637 124.247-212.538l.122-129.713a6.5 6.5 0 0 0-4.625-6.232zM47.933 188.543l.117-124.887L210.02 15.23l-.017 18.53L70.419 75.493a6.5 6.5 0 0 0-4.638 6.221l-.1 106.846c-.072 76.838 41.41 148.106 108.26 185.992l35.721 20.245-.019 20.39-44.454-25.194C92.784 348.958 47.854 271.768 47.933 188.543zm336.848.317c-.079 83.224-45.154 160.331-117.636 201.229l-44.502 25.11.019-20.39 35.761-20.178c66.92-37.761 108.537-108.95 108.609-185.787l.031-33.03a6.5 6.5 0 0 0-6.494-6.506h-.006a6.5 6.5 0 0 0-6.5 6.494l-.031 33.03c-.068 72.16-39.151 139.016-101.998 174.478l-35.862 20.235-35.821-20.302c-62.78-35.58-101.738-102.509-101.67-174.669l.096-102.01L216.491 45.39l137.637 41.44-.024 25.647a6.5 6.5 0 0 0 6.494 6.506h.006a6.5 6.5 0 0 0 6.5-6.494l.029-30.483a6.499 6.499 0 0 0-4.626-6.23L223.003 33.773l.017-18.53 161.877 48.74-.116 124.877zM263.14 83.972h-.19l-.662.002c-11.939.041-22.942 6.292-29.432 16.72-3.557 5.715-9.688 9.125-16.406 9.125h-.019c-6.726-.006-12.859-3.429-16.407-9.156-6.47-10.441-17.461-16.712-29.394-16.776l-.662-.004h-.289c-28.598 0-52.445 23.163-53.22 51.766a53.36 53.36 0 0 0 2.387 17.328l17.87 56.036c.049 22.333 4.775 56.07 15.189 78.605l23.083 49.947c2.359 6.717 8.548 11.247 15.529 11.317l.174.001a16.44 16.44 0 0 0 11.639-4.784 16.439 16.439 0 0 0 4.914-11.756 6.5 6.5 0 0 0-.247-1.781c-4.477-15.784-13.513-60.16-1.729-75.736 2.624-3.468 6.122-5.083 11.009-5.083h.021c4.759.004 8.175 1.589 10.75 4.988 11.729 15.48 2.828 59.822-1.592 75.601a6.543 6.543 0 0 0-.241 1.749c-.008 8.563 6.797 16.097 15.17 16.794.471.039.938.059 1.404.059a16.491 16.491 0 0 0 15.582-11.016l23.287-50.214c10.433-22.495 15.211-56.2 15.299-78.539l17.991-56.048a53.294 53.294 0 0 0 2.403-17.278c-.718-28.64-24.573-51.867-53.211-51.867zm38.416 65.216l-18.286 56.969a6.813 6.813 0 0 0-.311 2.05c.053 20.902-4.335 52.983-14.093 74.025l-23.431 50.524a6.537 6.537 0 0 0-.284.721 3.554 3.554 0 0 1-3.688 2.441c-1.446-.121-2.868-1.608-3.184-3.188 2.765-10.202 16.072-63.479-.865-85.845-5.019-6.627-12.316-10.135-21.104-10.143h-.031c-8.92 0-16.313 3.543-21.383 10.246-17.009 22.494-3.517 75.804-.716 86.012a3.525 3.525 0 0 1-.992 1.855c-.68.672-1.6 1.017-2.539 1.027-1.505-.016-2.916-1.14-3.433-2.734a6.326 6.326 0 0 0-.283-.725l-23.228-50.26c-8.419-18.218-12.799-44.67-13.776-65.024 12.652 3.886 37.273 10.044 66.39 10.072h.189c15.837 0 32.321-1.859 48.993-5.527a6.5 6.5 0 0 0-2.793-12.697c-.489.107-.976.198-1.464.303l7.173-18.151a6.5 6.5 0 0 0-12.09-4.778L246.2 211.996c-10.088 1.465-20.025 2.217-29.69 2.217h-.178c-10.921-.01-21.236-.964-30.442-2.334l-10.057-25.592a6.5 6.5 0 0 0-12.1 4.755l7.104 18.077c-10.552-2.299-18.447-4.791-22.403-6.146l-17.189-53.899a40.29 40.29 0 0 1-1.79-13.073c.584-21.615 18.606-39.117 40.213-39.117l.219.001.667.004c7.436.04 14.321 4.011 18.419 10.623 5.933 9.575 16.192 15.298 27.446 15.309h.03c11.24 0 21.498-5.702 27.443-15.257 4.11-6.604 11.003-10.563 18.498-10.589l.598-.002h.144c21.649 0 39.681 17.553 40.225 39.192a40.226 40.226 0 0 1-1.801 13.023z"/></svg>