<svg xmlns="http://www.w3.org/2000/svg" viewBox="0 0 328.779 328.779"><path fill="#58abff" d="M273.038 32.634c.052-.317.085-.641.09-.972 0-.017.004-.033.005-.05l.158-25.071A6.501 6.501 0 0 0 266.79 0H61.99a6.5 6.5 0 0 0-6.5 6.541l.158 25.071c0 .017.004.033.005.05.005.331.037.655.09.972.007.043.012.086.02.129.061.331.15.651.259.962.008.022.01.045.018.067l20.42 56.165c-3.796 3.363-6.206 8.258-6.206 13.717v1.918c0 5.207 2.191 9.904 5.687 13.246-2.353 3.199-3.762 7.134-3.762 11.401 0 6.426 3.168 12.112 8.011 15.623a18.754 18.754 0 0 0-2.634 9.575v.816c0 5.815 2.644 11.02 6.788 14.489a19.188 19.188 0 0 0-3.255 10.708c0 4.911 1.859 9.385 4.89 12.795a19.11 19.11 0 0 0-4.89 12.805c0 5.799 2.58 10.995 6.638 14.538a19.148 19.148 0 0 0-3.508 11.073c0 4.91 1.86 9.384 4.892 12.794a19.149 19.149 0 0 0-4.892 12.816c0 5.515 2.339 10.484 6.063 14.005a19.122 19.122 0 0 0-3.894 11.596c0 4.911 1.859 9.385 4.891 12.795-3.15 3.536-4.891 8.035-4.891 12.814 0 10.642 8.658 19.3 19.3 19.3h117.4c5.17 0 10.02-2.012 13.646-5.653a19.172 19.172 0 0 0 5.654-13.646c0-4.914-1.859-9.391-4.891-12.802a19.117 19.117 0 0 0 4.891-12.807c0-4.347-1.462-8.35-3.896-11.58.132-.125.273-.235.402-.364 3.653-3.636 5.665-8.485 5.665-13.656 0-4.913-1.86-9.39-4.893-12.802 3.152-3.537 4.893-8.033 4.893-12.808 0-4.114-1.305-7.923-3.508-11.059.333-.292.668-.579.983-.896a19.181 19.181 0 0 0 5.655-13.656c0-4.913-1.861-9.389-4.895-12.8 3.034-3.411 4.895-7.887 4.895-12.801 0-3.959-1.202-7.642-3.255-10.708 4.144-3.469 6.788-8.674 6.788-14.489v-.816c0-3.497-.972-6.763-2.634-9.575 4.843-3.51 8.011-9.197 8.011-15.623 0-4.267-1.409-8.202-3.762-11.401 3.496-3.342 5.687-8.038 5.687-13.246v-1.918c0-5.458-2.41-10.354-6.206-13.717l20.42-56.165c.008-.022.01-.045.018-.067a6.46 6.46 0 0 0 .259-.962c.011-.044.015-.087.023-.13zM260.249 13l-.076 12.071H68.607L68.531 13h191.718zm-14.723 90.674v1.918a5.35 5.35 0 0 1-5.344 5.344H88.597a5.35 5.35 0 0 1-5.344-5.344v-1.918a5.35 5.35 0 0 1 5.344-5.344h151.585a5.35 5.35 0 0 1 5.344 5.344zm-8.228 32.867H91.482c-3.475 0-6.303-2.827-6.303-6.303s2.828-6.303 6.303-6.303h145.816c3.475 0 6.303 2.827 6.303 6.303s-2.828 6.303-6.303 6.303zm.925 18.895v.816a5.902 5.902 0 0 1-5.895 5.895H96.451a5.902 5.902 0 0 1-5.895-5.895v-.816a5.902 5.902 0 0 1 5.895-5.895h135.878a5.901 5.901 0 0 1 5.894 5.895zm-9.816 32.315l-.018-.001H100.39l-.018.001a6.31 6.31 0 0 1-6.282-6.302 6.31 6.31 0 0 1 6.303-6.303h127.994a6.31 6.31 0 0 1 6.303 6.303 6.31 6.31 0 0 1-6.283 6.302zm6.282 19.299a6.274 6.274 0 0 1-1.857 4.474 6.22 6.22 0 0 1-4.443 1.836H210.59l.645-12.607h17.151l.021-.001a6.305 6.305 0 0 1 6.282 6.298zm-4.975 30.063a6.274 6.274 0 0 1-4.464 1.847h-15.969l.645-12.601h15.324c3.479 0 6.31 2.826 6.31 6.301a6.257 6.257 0 0 1-1.846 4.453zm1.846 21.157a6.229 6.229 0 0 1-1.847 4.454 6.27 6.27 0 0 1-4.463 1.846h-17.279l.645-12.609h16.634a6.315 6.315 0 0 1 6.31 6.309zm-4.026 30.063a6.224 6.224 0 0 1-4.444 1.837h-16.429l.645-12.601h15.784c3.474 0 6.3 2.826 6.3 6.301a6.24 6.24 0 0 1-1.856 4.463zM99.39 283.87c0-1.687.652-3.266 1.855-4.464a6.224 6.224 0 0 1 4.444-1.837h18.07v12.601h-18.07a6.307 6.307 0 0 1-6.299-6.3zm4.14-19.301c-3.479 0-6.31-2.826-6.31-6.3 0-1.688.655-3.273 1.847-4.464a6.27 6.27 0 0 1 4.463-1.846h20.23v12.609h-20.23zm-6.31-31.909c0-1.682.656-3.264 1.846-4.454a6.274 6.274 0 0 1 4.464-1.847h20.23v12.601h-20.23c-3.48 0-6.31-2.826-6.31-6.3zm31.902-19.301H100.39c-3.474 0-6.3-2.83-6.3-6.31 0-1.687.652-3.265 1.857-4.464a6.222 6.222 0 0 1 4.425-1.835l.021.001h65.581l-36.852 12.608zM88.609 85.33l-2.888-7.943H215.59a6.5 6.5 0 1 0 0-13H80.995l-9.568-26.315h185.925L240.17 85.33H88.609zm35.151 230.449h-18.07a6.307 6.307 0 0 1-4.453-10.764 6.257 6.257 0 0 1 4.453-1.846h18.07v12.61zm13-.229v-91.064l61.318-20.978-.819 16.019-1.31 25.601-1.31 25.609-1.31 25.599v.001l-.984 19.213H136.76zm90.773-1.607a6.223 6.223 0 0 1-4.443 1.836h-17.741l.646-12.609h17.095c3.474 0 6.3 2.83 6.3 6.31a6.265 6.265 0 0 1-1.857 4.463z"/></svg>