<svg xmlns="http://www.w3.org/2000/svg" viewBox="0 0 473.138 473.138"><path fill="#58abff" d="M419.608 103.591c-6.607-6.608-17.359-6.608-23.967 0-3.528 3.528-5.153 8.236-4.914 12.865h-46.481l17.098-40.934c1.35.336 2.73.523 4.114.523 4.34 0 8.68-1.652 11.983-4.956 6.608-6.608 6.608-17.359 0-23.968-6.608-6.607-17.358-6.606-23.967 0-4.357 4.358-5.822 10.514-4.432 16.099l-40.935 17.1-.004-46.482c.296.015.591.042.887.042 4.34 0 8.68-1.652 11.983-4.956 6.608-6.608 6.608-17.359 0-23.967-6.607-6.608-17.359-6.608-23.967 0-5.241 5.24-6.309 13.08-3.237 19.399l-39.841 59.698c-12.983 2.747-24.406 10.822-31.659 22.503-5.911 9.521-16.121 15.206-27.312 15.206-11.19 0-21.4-5.684-27.312-15.206-9.107-14.667-24.545-23.467-41.297-23.541l-.979-.004-.345-.001c-41.101 0-75.352 33.307-76.424 74.405a76.55 76.55 0 0 0 3.443 24.863l26.977 84.319c.033 33.074 7.055 83.333 22.546 116.771l34.684 74.864c3.054 8.848 11.157 14.817 20.293 14.901 5.81.076 11.254-2.162 15.37-6.24a21.4 21.4 0 0 0 6.383-15.309c0-.603-.084-1.203-.249-1.783-6.854-24.03-20.603-91.744-2.17-116.169 4.526-5.997 10.767-8.913 19.081-8.913 8.104 0 14.211 2.855 18.669 8.728 18.378 24.213 4.976 91.922-1.739 115.968a6.51 6.51 0 0 0-.24 1.75c0 11.176 8.866 20.999 19.764 21.896.606.05 1.209.075 1.808.075a21.468 21.468 0 0 0 20.34-14.495l34.848-75.328c15.463-33.427 22.466-83.683 22.488-116.721l26.99-84.36a76.206 76.206 0 0 0 2.636-11.649l59.683-39.792a16.977 16.977 0 0 0 7.42 1.721c4.34 0 8.68-1.652 11.983-4.956 6.608-6.607 6.608-17.358 0-23.966zm-56.941-47.275a3.933 3.933 0 0 1 2.792-1.154c1.011 0 2.021.385 2.79 1.154a3.95 3.95 0 0 1 0 5.583 3.95 3.95 0 0 1-5.581 0 3.952 3.952 0 0 1-.001-5.583zm-56.468-42.167c.77-.77 1.78-1.154 2.791-1.154s2.021.385 2.791 1.154a3.95 3.95 0 0 1 0 5.583 3.951 3.951 0 0 1-5.582 0 3.95 3.95 0 0 1 0-5.583zm-7.996 249.457a6.946 6.946 0 0 0-.309 2.075c.109 31.628-6.505 80.224-21.286 112.177l-34.996 75.65a6.373 6.373 0 0 0-.282.721 8.52 8.52 0 0 1-8.853 5.879c-3.864-.318-7.402-4.124-7.794-8.196 2.876-10.649 24.162-93.549-.698-126.314-6.985-9.206-16.751-13.874-29.028-13.874-12.495 0-22.406 4.738-29.458 14.082-24.901 32.996-3.177 115.887-.238 126.553a8.481 8.481 0 0 1-2.499 5.304 8.52 8.52 0 0 1-6.1 2.476c-3.621-.034-6.985-2.631-8.183-6.318a6.522 6.522 0 0 0-.284-.725l-34.834-75.189c-13.45-29.033-20.155-71.786-21.196-103.11 16.941 5.501 55.931 16.207 102.792 16.207 23.556 0 48.084-2.781 72.905-8.266a6.498 6.498 0 0 0 4.944-7.749c-.774-3.505-4.246-5.723-7.749-4.944a362.016 362.016 0 0 1-8.083 1.685l12.903-32.741a6.5 6.5 0 0 0-12.094-4.767l-15.813 40.126c-15.98 2.427-31.719 3.656-47.013 3.656-17.25 0-33.501-1.556-47.886-3.764L131.3 234.222a6.5 6.5 0 0 0-12.095 4.767l12.85 32.606c-20.428-4.063-35.359-8.931-41.315-11.022l-26.3-82.209a63.536 63.536 0 0 1-2.844-20.609c.89-34.106 29.313-61.744 63.428-61.744h.286l.982.004c12.248.054 23.579 6.558 30.31 17.398 8.299 13.368 22.638 21.348 38.355 21.348s30.057-7.98 38.356-21.348c5.191-8.36 13.217-14.21 22.34-16.418l71.954 72.119a62.916 62.916 0 0 1-2.118 9.203l-27.286 85.289zm37.11-105.173L266.168 89.13l28.936-43.357.004 44.305a6.502 6.502 0 0 0 9.004 5.998l26.075-10.891-22.219 22.219a6.5 6.5 0 1 0 9.192 9.192l22.221-22.221-10.892 26.075a6.5 6.5 0 0 0 5.998 9.005h44.29l-43.464 28.978zm75.103-40.067a3.947 3.947 0 0 1-5.522.049c-.024-.024-.051-.044-.075-.067a3.949 3.949 0 0 1 .015-5.564c.77-.77 1.78-1.154 2.791-1.154s2.021.385 2.791 1.154a3.95 3.95 0 0 1 0 5.582z"/></svg>